<svg width="30" height="31" viewBox="0 0 30 31" fill="none" xmlns="http://www.w3.org/2000/svg">
<path d="M15 0.900146C10.9294 0.900146 10.4175 0.918896 8.81812 0.990146C7.21875 1.06515 6.12937 1.3164 5.175 1.68765C4.17393 2.06418 3.26717 2.65482 2.51813 3.41827C1.75514 4.1677 1.16458 5.07435 0.7875 6.07515C0.41625 7.02765 0.163125 8.1189 0.09 9.71265C0.01875 11.3158 0 11.8258 0 15.902C0 19.9745 0.01875 20.4845 0.09 22.0839C0.165 23.6814 0.41625 24.7708 0.7875 25.7251C1.17188 26.7114 1.68375 27.5476 2.51813 28.382C3.35063 29.2164 4.18687 29.7301 5.17313 30.1126C6.12937 30.4839 7.21688 30.737 8.81437 30.8101C10.4156 30.8814 10.9256 30.9001 15 30.9001C19.0744 30.9001 19.5825 30.8814 21.1838 30.8101C22.7794 30.7351 23.8725 30.4839 24.8269 30.1126C25.8273 29.7359 26.7334 29.1453 27.4819 28.382C28.3162 27.5476 28.8281 26.7114 29.2125 25.7251C29.5819 24.7708 29.835 23.6814 29.91 22.0839C29.9812 20.4845 30 19.9745 30 15.9001C30 11.8258 29.9812 11.3158 29.91 9.71452C29.835 8.1189 29.5819 7.02765 29.2125 6.07515C28.8355 5.07432 28.2449 4.16766 27.4819 3.41827C26.7331 2.65454 25.8262 2.06386 24.825 1.68765C23.8687 1.3164 22.7775 1.06327 21.1819 0.990146C19.5806 0.918896 19.0725 0.900146 14.9963 0.900146H15.0019H15ZM13.6556 3.6039H15.0019C19.0069 3.6039 19.4812 3.61702 21.0619 3.69015C22.5244 3.75577 23.3194 4.0014 23.8481 4.20577C24.5475 4.47765 25.0481 4.8039 25.5731 5.3289C26.0981 5.8539 26.4225 6.35265 26.6944 7.0539C26.9006 7.58077 27.1444 8.37577 27.21 9.83827C27.2831 11.4189 27.2981 11.8933 27.2981 15.8964C27.2981 19.8995 27.2831 20.3758 27.21 21.9564C27.1444 23.4189 26.8988 24.212 26.6944 24.7408C26.4539 25.3921 26.07 25.981 25.5712 26.4639C25.0462 26.9889 24.5475 27.3133 23.8463 27.5851C23.3213 27.7914 22.5262 28.0351 21.0619 28.1026C19.4812 28.1739 19.0069 28.1908 15.0019 28.1908C10.9969 28.1908 10.5206 28.1739 8.94 28.1026C7.4775 28.0351 6.68437 27.7914 6.15562 27.5851C5.50406 27.345 4.91461 26.9619 4.43062 26.4639C3.93141 25.9802 3.54698 25.3908 3.30562 24.7389C3.10125 24.212 2.85563 23.417 2.79 21.9545C2.71875 20.3739 2.70375 19.8995 2.70375 15.8926C2.70375 11.8876 2.71875 11.4151 2.79 9.83452C2.8575 8.37202 3.10125 7.57702 3.3075 7.04827C3.57938 6.3489 3.90562 5.84827 4.43062 5.32327C4.95563 4.79827 5.45437 4.4739 6.15562 4.20202C6.68437 3.99577 7.4775 3.75202 8.94 3.68452C10.3238 3.62077 10.86 3.60202 13.6556 3.60015V3.6039ZM23.0081 6.0939C22.7717 6.0939 22.5377 6.14046 22.3193 6.23091C22.1009 6.32137 21.9025 6.45396 21.7353 6.6211C21.5682 6.78825 21.4356 6.98668 21.3451 7.20507C21.2547 7.42345 21.2081 7.65752 21.2081 7.8939C21.2081 8.13028 21.2547 8.36434 21.3451 8.58273C21.4356 8.80111 21.5682 8.99954 21.7353 9.16669C21.9025 9.33383 22.1009 9.46642 22.3193 9.55688C22.5377 9.64734 22.7717 9.6939 23.0081 9.6939C23.4855 9.6939 23.9434 9.50425 24.2809 9.16669C24.6185 8.82912 24.8081 8.37129 24.8081 7.8939C24.8081 7.41651 24.6185 6.95867 24.2809 6.6211C23.9434 6.28354 23.4855 6.0939 23.0081 6.0939ZM15.0019 8.19765C13.9801 8.18171 12.9654 8.36918 12.0168 8.74916C11.0682 9.12914 10.2047 9.69403 9.47653 10.4109C8.74835 11.1279 8.17006 11.9825 7.77533 12.925C7.3806 13.8676 7.17731 14.8792 7.17731 15.9011C7.17731 16.923 7.3806 17.9346 7.77533 18.8772C8.17006 19.8197 8.74835 20.6743 9.47653 21.3912C10.2047 22.1081 11.0682 22.673 12.0168 23.053C12.9654 23.433 13.9801 23.6205 15.0019 23.6045C17.0241 23.573 18.9529 22.7475 20.3718 21.3062C21.7908 19.865 22.5861 17.9236 22.5861 15.9011C22.5861 13.8786 21.7908 11.9372 20.3718 10.4959C18.9529 9.05468 17.0241 8.2292 15.0019 8.19765ZM15.0019 10.8995C16.3281 10.8995 17.6001 11.4264 18.5379 12.3642C19.4757 13.302 20.0025 14.5739 20.0025 15.9001C20.0025 17.2264 19.4757 18.4983 18.5379 19.4361C17.6001 20.3739 16.3281 20.9008 15.0019 20.9008C13.6756 20.9008 12.4037 20.3739 11.4659 19.4361C10.5281 18.4983 10.0013 17.2264 10.0013 15.9001C10.0013 14.5739 10.5281 13.302 11.4659 12.3642C12.4037 11.4264 13.6756 10.8995 15.0019 10.8995Z" fill="#F8434F"/>
</svg>
