<svg width="30" height="29" viewBox="0 0 30 29" fill="none" xmlns="http://www.w3.org/2000/svg">
<path d="M25.6171 4.86605C24.2356 3.6038 22.5903 2.60308 20.7772 1.92221C18.9641 1.24134 17.0194 0.893933 15.0565 0.900231C6.83136 0.900231 0.128076 6.9666 0.120542 14.414C0.120542 16.7993 0.809894 19.1198 2.11138 21.1743L0 28.1801L7.91813 26.3012C10.1086 27.3804 12.5626 27.946 15.0565 27.9466H15.064C23.2911 27.9466 29.9925 21.8802 30 14.426C30.0019 12.6494 29.6154 10.8901 28.8629 9.24938C28.1103 7.60865 27.0066 6.11893 25.6153 4.86605H25.6171ZM15.0565 25.6585C12.8321 25.6591 10.6486 25.1173 8.73556 24.0899L8.28352 23.8443L3.58614 24.9594L4.84053 20.8112L4.54671 20.3832C3.30325 18.5935 2.64562 16.5214 2.65005 14.4072C2.65005 8.22489 8.21949 3.18151 15.064 3.18151C16.6946 3.17887 18.3097 3.46842 19.8161 4.03349C21.3225 4.59855 22.6904 5.42795 23.841 6.47386C24.9957 7.51569 25.911 8.75416 26.5343 10.1178C27.1575 11.4815 27.4763 12.9434 27.4724 14.4191C27.4648 20.6236 21.8954 25.6585 15.0565 25.6585ZM21.8653 17.246C21.4942 17.0772 19.6616 16.2605 19.3169 16.1446C18.9741 16.0338 18.7236 15.9758 18.4788 16.3134C18.2283 16.6493 17.5126 17.4148 17.2978 17.6348C17.0831 17.8615 16.8609 17.8871 16.4879 17.72C16.1169 17.5495 14.9134 17.1949 13.4894 16.0406C12.3782 15.1455 11.6342 14.0372 11.412 13.7013C11.1973 13.3637 11.3913 13.183 11.5777 13.0142C11.7416 12.8642 11.9488 12.6187 12.1352 12.4243C12.3236 12.2299 12.3857 12.0867 12.5082 11.8616C12.6306 11.6332 12.5722 11.4388 12.4799 11.27C12.3857 11.1012 11.6418 9.43543 11.3272 8.76367C11.0259 8.10042 10.7189 8.19249 10.4891 8.18397C10.2744 8.17203 10.0239 8.17203 9.77335 8.17203C9.58418 8.17629 9.39803 8.2159 9.22657 8.28837C9.05511 8.36084 8.90205 8.46461 8.77699 8.59317C8.4342 8.93076 7.47551 9.74745 7.47551 11.4132C7.47551 13.079 8.81278 14.68 9.00113 14.9068C9.18571 15.1335 11.6267 18.5418 15.3729 20.0081C16.2582 20.3576 16.955 20.5639 17.4994 20.7208C18.394 20.98 19.202 20.9407 19.8462 20.8572C20.5619 20.7583 22.0517 20.0388 22.3663 19.2494C22.6752 18.4583 22.6752 17.7831 22.581 17.6416C22.4887 17.4984 22.2382 17.4148 21.8653 17.246Z" fill="#F8434F"/>
</svg>
